<mxfile host="Electron" modified="2024-05-25T12:04:35.536Z" agent="Mozilla/5.0 (Windows NT 10.0; Win64; x64) AppleWebKit/537.36 (KHTML, like Gecko) draw.io/24.4.0 Chrome/120.0.6099.109 Electron/28.1.0 Safari/537.36" etag="ONEOJGY610vnn1FTqrhS" version="24.4.0" type="device">
  <diagram id="C5RBs43oDa-KdzZeNtuy" name="Page-1">
    <mxGraphModel dx="1816" dy="1746" grid="1" gridSize="10" guides="1" tooltips="1" connect="1" arrows="1" fold="1" page="1" pageScale="1" pageWidth="827" pageHeight="1169" math="0" shadow="0">
      <root>
        <mxCell id="WIyWlLk6GJQsqaUBKTNV-0" />
        <mxCell id="WIyWlLk6GJQsqaUBKTNV-1" parent="WIyWlLk6GJQsqaUBKTNV-0" />
        <mxCell id="Z8X8oKxadUqUGJOLNiau-26" value="" style="edgeStyle=orthogonalEdgeStyle;rounded=0;orthogonalLoop=1;jettySize=auto;html=1;" edge="1" parent="WIyWlLk6GJQsqaUBKTNV-1" source="WIyWlLk6GJQsqaUBKTNV-3" target="Z8X8oKxadUqUGJOLNiau-25">
          <mxGeometry relative="1" as="geometry" />
        </mxCell>
        <mxCell id="WIyWlLk6GJQsqaUBKTNV-3" value="Alert Recived" style="rounded=1;whiteSpace=wrap;html=1;fontSize=12;glass=0;strokeWidth=1;shadow=0;" parent="WIyWlLk6GJQsqaUBKTNV-1" vertex="1">
          <mxGeometry x="160" y="-520" width="120" height="40" as="geometry" />
        </mxCell>
        <mxCell id="WIyWlLk6GJQsqaUBKTNV-4" value="Yes" style="rounded=0;html=1;jettySize=auto;orthogonalLoop=1;fontSize=11;endArrow=block;endFill=0;endSize=8;strokeWidth=1;shadow=0;labelBackgroundColor=none;edgeStyle=orthogonalEdgeStyle;entryX=0.5;entryY=0;entryDx=0;entryDy=0;exitX=0.5;exitY=1;exitDx=0;exitDy=0;" parent="WIyWlLk6GJQsqaUBKTNV-1" source="WIyWlLk6GJQsqaUBKTNV-6" target="Z8X8oKxadUqUGJOLNiau-4" edge="1">
          <mxGeometry y="20" relative="1" as="geometry">
            <mxPoint as="offset" />
            <mxPoint x="208.5" y="220" as="sourcePoint" />
            <mxPoint x="209" y="320" as="targetPoint" />
          </mxGeometry>
        </mxCell>
        <mxCell id="Z8X8oKxadUqUGJOLNiau-45" value="" style="edgeStyle=orthogonalEdgeStyle;rounded=0;orthogonalLoop=1;jettySize=auto;html=1;" edge="1" parent="WIyWlLk6GJQsqaUBKTNV-1" source="WIyWlLk6GJQsqaUBKTNV-6" target="Z8X8oKxadUqUGJOLNiau-44">
          <mxGeometry relative="1" as="geometry" />
        </mxCell>
        <mxCell id="WIyWlLk6GJQsqaUBKTNV-6" value="if valid Transaction&amp;nbsp;" style="rhombus;whiteSpace=wrap;html=1;shadow=0;fontFamily=Helvetica;fontSize=12;align=center;strokeWidth=1;spacing=6;spacingTop=-4;" parent="WIyWlLk6GJQsqaUBKTNV-1" vertex="1">
          <mxGeometry x="169" y="110" width="100" height="80" as="geometry" />
        </mxCell>
        <mxCell id="Z8X8oKxadUqUGJOLNiau-3" style="edgeStyle=orthogonalEdgeStyle;rounded=0;orthogonalLoop=1;jettySize=auto;html=1;exitX=0.5;exitY=1;exitDx=0;exitDy=0;entryX=0.5;entryY=0;entryDx=0;entryDy=0;" edge="1" parent="WIyWlLk6GJQsqaUBKTNV-1" source="Z8X8oKxadUqUGJOLNiau-1" target="WIyWlLk6GJQsqaUBKTNV-6">
          <mxGeometry relative="1" as="geometry" />
        </mxCell>
        <mxCell id="Z8X8oKxadUqUGJOLNiau-1" value="Query CRM&amp;nbsp;" style="rounded=1;whiteSpace=wrap;html=1;fontSize=12;glass=0;strokeWidth=1;shadow=0;" vertex="1" parent="WIyWlLk6GJQsqaUBKTNV-1">
          <mxGeometry x="159" y="30" width="120" height="40" as="geometry" />
        </mxCell>
        <mxCell id="Z8X8oKxadUqUGJOLNiau-59" value="" style="edgeStyle=orthogonalEdgeStyle;rounded=0;orthogonalLoop=1;jettySize=auto;html=1;" edge="1" parent="WIyWlLk6GJQsqaUBKTNV-1" source="Z8X8oKxadUqUGJOLNiau-4" target="Z8X8oKxadUqUGJOLNiau-58">
          <mxGeometry relative="1" as="geometry" />
        </mxCell>
        <mxCell id="Z8X8oKxadUqUGJOLNiau-4" value="Mark Transaction As Alert" style="rounded=1;whiteSpace=wrap;html=1;fontSize=12;glass=0;strokeWidth=1;shadow=0;" vertex="1" parent="WIyWlLk6GJQsqaUBKTNV-1">
          <mxGeometry x="159" y="250" width="120" height="40" as="geometry" />
        </mxCell>
        <mxCell id="Z8X8oKxadUqUGJOLNiau-14" value="" style="edgeStyle=orthogonalEdgeStyle;rounded=0;orthogonalLoop=1;jettySize=auto;html=1;" edge="1" parent="WIyWlLk6GJQsqaUBKTNV-1" source="Z8X8oKxadUqUGJOLNiau-5" target="Z8X8oKxadUqUGJOLNiau-13">
          <mxGeometry relative="1" as="geometry" />
        </mxCell>
        <mxCell id="Z8X8oKxadUqUGJOLNiau-5" value="Save Alert" style="rounded=1;whiteSpace=wrap;html=1;fontSize=12;glass=0;strokeWidth=1;shadow=0;" vertex="1" parent="WIyWlLk6GJQsqaUBKTNV-1">
          <mxGeometry x="159" y="-280" width="120" height="40" as="geometry" />
        </mxCell>
        <mxCell id="Z8X8oKxadUqUGJOLNiau-22" value="" style="edgeStyle=orthogonalEdgeStyle;rounded=0;orthogonalLoop=1;jettySize=auto;html=1;entryX=0.5;entryY=0;entryDx=0;entryDy=0;" edge="1" parent="WIyWlLk6GJQsqaUBKTNV-1" source="Z8X8oKxadUqUGJOLNiau-11" target="Z8X8oKxadUqUGJOLNiau-1">
          <mxGeometry relative="1" as="geometry">
            <mxPoint x="219" y="10" as="targetPoint" />
          </mxGeometry>
        </mxCell>
        <mxCell id="Z8X8oKxadUqUGJOLNiau-24" value="" style="edgeStyle=orthogonalEdgeStyle;rounded=0;orthogonalLoop=1;jettySize=auto;html=1;" edge="1" parent="WIyWlLk6GJQsqaUBKTNV-1" source="Z8X8oKxadUqUGJOLNiau-11" target="Z8X8oKxadUqUGJOLNiau-23">
          <mxGeometry relative="1" as="geometry" />
        </mxCell>
        <mxCell id="Z8X8oKxadUqUGJOLNiau-11" value="Respond With Recived" style="rounded=1;whiteSpace=wrap;html=1;fontSize=12;glass=0;strokeWidth=1;shadow=0;" vertex="1" parent="WIyWlLk6GJQsqaUBKTNV-1">
          <mxGeometry x="159" y="-70" width="120" height="40" as="geometry" />
        </mxCell>
        <mxCell id="Z8X8oKxadUqUGJOLNiau-15" value="" style="edgeStyle=orthogonalEdgeStyle;rounded=0;orthogonalLoop=1;jettySize=auto;html=1;" edge="1" parent="WIyWlLk6GJQsqaUBKTNV-1" source="Z8X8oKxadUqUGJOLNiau-13" target="Z8X8oKxadUqUGJOLNiau-11">
          <mxGeometry relative="1" as="geometry" />
        </mxCell>
        <mxCell id="Z8X8oKxadUqUGJOLNiau-20" value="Yes" style="edgeLabel;html=1;align=center;verticalAlign=middle;resizable=0;points=[];" vertex="1" connectable="0" parent="Z8X8oKxadUqUGJOLNiau-15">
          <mxGeometry x="0.0286" y="-3" relative="1" as="geometry">
            <mxPoint as="offset" />
          </mxGeometry>
        </mxCell>
        <mxCell id="Z8X8oKxadUqUGJOLNiau-17" value="" style="edgeStyle=orthogonalEdgeStyle;rounded=0;orthogonalLoop=1;jettySize=auto;html=1;" edge="1" parent="WIyWlLk6GJQsqaUBKTNV-1" source="Z8X8oKxadUqUGJOLNiau-13" target="Z8X8oKxadUqUGJOLNiau-16">
          <mxGeometry relative="1" as="geometry" />
        </mxCell>
        <mxCell id="Z8X8oKxadUqUGJOLNiau-18" value="" style="edgeStyle=orthogonalEdgeStyle;rounded=0;orthogonalLoop=1;jettySize=auto;html=1;" edge="1" parent="WIyWlLk6GJQsqaUBKTNV-1" source="Z8X8oKxadUqUGJOLNiau-13" target="Z8X8oKxadUqUGJOLNiau-16">
          <mxGeometry relative="1" as="geometry" />
        </mxCell>
        <mxCell id="Z8X8oKxadUqUGJOLNiau-19" value="NO" style="edgeLabel;html=1;align=center;verticalAlign=middle;resizable=0;points=[];" vertex="1" connectable="0" parent="Z8X8oKxadUqUGJOLNiau-18">
          <mxGeometry x="0.0214" y="-3" relative="1" as="geometry">
            <mxPoint as="offset" />
          </mxGeometry>
        </mxCell>
        <mxCell id="Z8X8oKxadUqUGJOLNiau-13" value="saved Succes" style="rhombus;whiteSpace=wrap;html=1;rounded=1;glass=0;strokeWidth=1;shadow=0;" vertex="1" parent="WIyWlLk6GJQsqaUBKTNV-1">
          <mxGeometry x="169" y="-220" width="100" height="100" as="geometry" />
        </mxCell>
        <mxCell id="Z8X8oKxadUqUGJOLNiau-39" style="edgeStyle=orthogonalEdgeStyle;rounded=0;orthogonalLoop=1;jettySize=auto;html=1;exitX=1;exitY=0.5;exitDx=0;exitDy=0;entryX=0.5;entryY=0;entryDx=0;entryDy=0;" edge="1" parent="WIyWlLk6GJQsqaUBKTNV-1" source="Z8X8oKxadUqUGJOLNiau-16" target="WIyWlLk6GJQsqaUBKTNV-3">
          <mxGeometry relative="1" as="geometry" />
        </mxCell>
        <mxCell id="Z8X8oKxadUqUGJOLNiau-16" value="Log Error" style="whiteSpace=wrap;html=1;rounded=1;glass=0;strokeWidth=1;shadow=0;" vertex="1" parent="WIyWlLk6GJQsqaUBKTNV-1">
          <mxGeometry x="360" y="-200" width="120" height="60" as="geometry" />
        </mxCell>
        <mxCell id="Z8X8oKxadUqUGJOLNiau-23" value="Since We have no way of knowing that our respond reached ethoca i added a check for dublicate before saving the alert" style="ellipse;whiteSpace=wrap;html=1;rounded=1;glass=0;strokeWidth=1;shadow=0;dashed=1;dashPattern=12 12;" vertex="1" parent="WIyWlLk6GJQsqaUBKTNV-1">
          <mxGeometry x="380" y="-115" width="270" height="130" as="geometry" />
        </mxCell>
        <mxCell id="Z8X8oKxadUqUGJOLNiau-29" style="edgeStyle=orthogonalEdgeStyle;rounded=0;orthogonalLoop=1;jettySize=auto;html=1;exitX=0.5;exitY=1;exitDx=0;exitDy=0;entryX=0.5;entryY=0;entryDx=0;entryDy=0;" edge="1" parent="WIyWlLk6GJQsqaUBKTNV-1" source="Z8X8oKxadUqUGJOLNiau-25" target="Z8X8oKxadUqUGJOLNiau-5">
          <mxGeometry relative="1" as="geometry" />
        </mxCell>
        <mxCell id="Z8X8oKxadUqUGJOLNiau-30" value="NO" style="edgeLabel;html=1;align=center;verticalAlign=middle;resizable=0;points=[];" vertex="1" connectable="0" parent="Z8X8oKxadUqUGJOLNiau-29">
          <mxGeometry x="-0.292" relative="1" as="geometry">
            <mxPoint as="offset" />
          </mxGeometry>
        </mxCell>
        <mxCell id="Z8X8oKxadUqUGJOLNiau-32" style="edgeStyle=orthogonalEdgeStyle;rounded=0;orthogonalLoop=1;jettySize=auto;html=1;exitX=0;exitY=0.5;exitDx=0;exitDy=0;entryX=0;entryY=0.5;entryDx=0;entryDy=0;" edge="1" parent="WIyWlLk6GJQsqaUBKTNV-1" source="Z8X8oKxadUqUGJOLNiau-34" target="Z8X8oKxadUqUGJOLNiau-11">
          <mxGeometry relative="1" as="geometry">
            <Array as="points">
              <mxPoint x="70" y="-50" />
            </Array>
          </mxGeometry>
        </mxCell>
        <mxCell id="Z8X8oKxadUqUGJOLNiau-25" value="check if alert exists" style="rhombus;whiteSpace=wrap;html=1;rounded=1;glass=0;strokeWidth=1;shadow=0;" vertex="1" parent="WIyWlLk6GJQsqaUBKTNV-1">
          <mxGeometry x="159" y="-440" width="120" height="110" as="geometry" />
        </mxCell>
        <mxCell id="Z8X8oKxadUqUGJOLNiau-35" value="" style="edgeStyle=orthogonalEdgeStyle;rounded=0;orthogonalLoop=1;jettySize=auto;html=1;exitX=0;exitY=0.5;exitDx=0;exitDy=0;entryX=0;entryY=0.5;entryDx=0;entryDy=0;" edge="1" parent="WIyWlLk6GJQsqaUBKTNV-1" source="Z8X8oKxadUqUGJOLNiau-25" target="Z8X8oKxadUqUGJOLNiau-34">
          <mxGeometry relative="1" as="geometry">
            <mxPoint x="180" y="-390" as="sourcePoint" />
            <mxPoint x="159" y="-50" as="targetPoint" />
            <Array as="points">
              <mxPoint x="70" y="-390" />
            </Array>
          </mxGeometry>
        </mxCell>
        <mxCell id="Z8X8oKxadUqUGJOLNiau-36" value="YES" style="edgeLabel;html=1;align=center;verticalAlign=middle;resizable=0;points=[];" vertex="1" connectable="0" parent="Z8X8oKxadUqUGJOLNiau-35">
          <mxGeometry x="-0.1445" y="-1" relative="1" as="geometry">
            <mxPoint as="offset" />
          </mxGeometry>
        </mxCell>
        <mxCell id="Z8X8oKxadUqUGJOLNiau-38" value="" style="edgeStyle=orthogonalEdgeStyle;rounded=0;orthogonalLoop=1;jettySize=auto;html=1;" edge="1" parent="WIyWlLk6GJQsqaUBKTNV-1" source="Z8X8oKxadUqUGJOLNiau-34" target="Z8X8oKxadUqUGJOLNiau-37">
          <mxGeometry relative="1" as="geometry" />
        </mxCell>
        <mxCell id="Z8X8oKxadUqUGJOLNiau-34" value="Log Alert Duplicate Recived Error" style="whiteSpace=wrap;html=1;rounded=1;glass=0;strokeWidth=1;shadow=0;" vertex="1" parent="WIyWlLk6GJQsqaUBKTNV-1">
          <mxGeometry x="10" y="-220" width="120" height="60" as="geometry" />
        </mxCell>
        <mxCell id="Z8X8oKxadUqUGJOLNiau-37" value="If this happens alot this should give us some trail to follow" style="ellipse;whiteSpace=wrap;html=1;rounded=1;glass=0;strokeWidth=1;shadow=0;dashed=1;dashPattern=12 12;" vertex="1" parent="WIyWlLk6GJQsqaUBKTNV-1">
          <mxGeometry x="-320" y="-250" width="230" height="120" as="geometry" />
        </mxCell>
        <mxCell id="Z8X8oKxadUqUGJOLNiau-48" value="" style="edgeStyle=orthogonalEdgeStyle;rounded=0;orthogonalLoop=1;jettySize=auto;html=1;" edge="1" parent="WIyWlLk6GJQsqaUBKTNV-1" source="Z8X8oKxadUqUGJOLNiau-42" target="Z8X8oKxadUqUGJOLNiau-47">
          <mxGeometry relative="1" as="geometry" />
        </mxCell>
        <mxCell id="Z8X8oKxadUqUGJOLNiau-42" value="Update Ethoca With Not Found" style="whiteSpace=wrap;html=1;shadow=0;strokeWidth=1;spacing=6;spacingTop=-4;absoluteArcSize=0;arcSize=12;" vertex="1" parent="WIyWlLk6GJQsqaUBKTNV-1">
          <mxGeometry x="500" y="120" width="120" height="60" as="geometry" />
        </mxCell>
        <mxCell id="Z8X8oKxadUqUGJOLNiau-46" style="edgeStyle=orthogonalEdgeStyle;rounded=0;orthogonalLoop=1;jettySize=auto;html=1;exitX=1;exitY=0.5;exitDx=0;exitDy=0;" edge="1" parent="WIyWlLk6GJQsqaUBKTNV-1" source="Z8X8oKxadUqUGJOLNiau-44" target="Z8X8oKxadUqUGJOLNiau-42">
          <mxGeometry relative="1" as="geometry" />
        </mxCell>
        <mxCell id="Z8X8oKxadUqUGJOLNiau-44" value="mark alert as not found" style="whiteSpace=wrap;html=1;shadow=0;strokeWidth=1;spacing=6;spacingTop=-4;absoluteArcSize=0;arcSize=12;" vertex="1" parent="WIyWlLk6GJQsqaUBKTNV-1">
          <mxGeometry x="310" y="120" width="120" height="60" as="geometry" />
        </mxCell>
        <mxCell id="Z8X8oKxadUqUGJOLNiau-50" value="" style="edgeStyle=orthogonalEdgeStyle;rounded=0;orthogonalLoop=1;jettySize=auto;html=1;" edge="1" parent="WIyWlLk6GJQsqaUBKTNV-1" source="Z8X8oKxadUqUGJOLNiau-47" target="Z8X8oKxadUqUGJOLNiau-49">
          <mxGeometry relative="1" as="geometry" />
        </mxCell>
        <mxCell id="Z8X8oKxadUqUGJOLNiau-52" value="No" style="edgeLabel;html=1;align=center;verticalAlign=middle;resizable=0;points=[];" vertex="1" connectable="0" parent="Z8X8oKxadUqUGJOLNiau-50">
          <mxGeometry x="-0.1755" y="-2" relative="1" as="geometry">
            <mxPoint as="offset" />
          </mxGeometry>
        </mxCell>
        <mxCell id="Z8X8oKxadUqUGJOLNiau-53" style="edgeStyle=orthogonalEdgeStyle;rounded=0;orthogonalLoop=1;jettySize=auto;html=1;exitX=0.5;exitY=0;exitDx=0;exitDy=0;entryX=0.5;entryY=0;entryDx=0;entryDy=0;" edge="1" parent="WIyWlLk6GJQsqaUBKTNV-1" source="Z8X8oKxadUqUGJOLNiau-47" target="WIyWlLk6GJQsqaUBKTNV-3">
          <mxGeometry relative="1" as="geometry" />
        </mxCell>
        <mxCell id="Z8X8oKxadUqUGJOLNiau-55" value="Yes" style="edgeLabel;html=1;align=center;verticalAlign=middle;resizable=0;points=[];" vertex="1" connectable="0" parent="Z8X8oKxadUqUGJOLNiau-53">
          <mxGeometry x="-0.953" y="-1" relative="1" as="geometry">
            <mxPoint as="offset" />
          </mxGeometry>
        </mxCell>
        <mxCell id="Z8X8oKxadUqUGJOLNiau-47" value="succes&amp;nbsp;" style="rhombus;whiteSpace=wrap;html=1;shadow=0;strokeWidth=1;spacing=6;spacingTop=-4;" vertex="1" parent="WIyWlLk6GJQsqaUBKTNV-1">
          <mxGeometry x="720" y="110" width="80" height="80" as="geometry" />
        </mxCell>
        <mxCell id="Z8X8oKxadUqUGJOLNiau-51" style="edgeStyle=orthogonalEdgeStyle;rounded=0;orthogonalLoop=1;jettySize=auto;html=1;exitX=0;exitY=0.5;exitDx=0;exitDy=0;entryX=0.5;entryY=1;entryDx=0;entryDy=0;" edge="1" parent="WIyWlLk6GJQsqaUBKTNV-1" source="Z8X8oKxadUqUGJOLNiau-49" target="Z8X8oKxadUqUGJOLNiau-42">
          <mxGeometry relative="1" as="geometry" />
        </mxCell>
        <mxCell id="Z8X8oKxadUqUGJOLNiau-49" value="Log Error&amp;nbsp;" style="whiteSpace=wrap;html=1;shadow=0;strokeWidth=1;spacing=6;spacingTop=-4;" vertex="1" parent="WIyWlLk6GJQsqaUBKTNV-1">
          <mxGeometry x="700" y="280" width="120" height="60" as="geometry" />
        </mxCell>
        <mxCell id="Z8X8oKxadUqUGJOLNiau-62" value="" style="edgeStyle=orthogonalEdgeStyle;rounded=0;orthogonalLoop=1;jettySize=auto;html=1;" edge="1" parent="WIyWlLk6GJQsqaUBKTNV-1" source="Z8X8oKxadUqUGJOLNiau-58" target="Z8X8oKxadUqUGJOLNiau-61">
          <mxGeometry relative="1" as="geometry" />
        </mxCell>
        <mxCell id="Z8X8oKxadUqUGJOLNiau-58" value="Save Customer ID&amp;nbsp;" style="rounded=1;whiteSpace=wrap;html=1;fontSize=12;glass=0;strokeWidth=1;shadow=0;" vertex="1" parent="WIyWlLk6GJQsqaUBKTNV-1">
          <mxGeometry x="159" y="310" width="120" height="40" as="geometry" />
        </mxCell>
        <mxCell id="Z8X8oKxadUqUGJOLNiau-69" value="" style="edgeStyle=orthogonalEdgeStyle;rounded=0;orthogonalLoop=1;jettySize=auto;html=1;" edge="1" parent="WIyWlLk6GJQsqaUBKTNV-1" source="Z8X8oKxadUqUGJOLNiau-61" target="Z8X8oKxadUqUGJOLNiau-68">
          <mxGeometry relative="1" as="geometry" />
        </mxCell>
        <mxCell id="Z8X8oKxadUqUGJOLNiau-61" value="Add 2 Note To the Customer&amp;nbsp;&amp;nbsp;&lt;br&gt;- Normal Mesage using alert details&amp;nbsp;&lt;br&gt;- &quot;OTP&quot;" style="rounded=1;whiteSpace=wrap;html=1;fontSize=12;glass=0;strokeWidth=1;shadow=0;" vertex="1" parent="WIyWlLk6GJQsqaUBKTNV-1">
          <mxGeometry x="134.5" y="430" width="171" height="70" as="geometry" />
        </mxCell>
        <mxCell id="Z8X8oKxadUqUGJOLNiau-71" value="" style="edgeStyle=orthogonalEdgeStyle;rounded=0;orthogonalLoop=1;jettySize=auto;html=1;" edge="1" parent="WIyWlLk6GJQsqaUBKTNV-1" source="Z8X8oKxadUqUGJOLNiau-96" target="Z8X8oKxadUqUGJOLNiau-70">
          <mxGeometry relative="1" as="geometry" />
        </mxCell>
        <mxCell id="Z8X8oKxadUqUGJOLNiau-68" value="add email, phone and ip to blacklist" style="whiteSpace=wrap;html=1;rounded=1;glass=0;strokeWidth=1;shadow=0;" vertex="1" parent="WIyWlLk6GJQsqaUBKTNV-1">
          <mxGeometry x="145" y="567" width="150" height="35" as="geometry" />
        </mxCell>
        <mxCell id="Z8X8oKxadUqUGJOLNiau-75" value="" style="edgeStyle=orthogonalEdgeStyle;rounded=0;orthogonalLoop=1;jettySize=auto;html=1;" edge="1" parent="WIyWlLk6GJQsqaUBKTNV-1" source="Z8X8oKxadUqUGJOLNiau-70" target="Z8X8oKxadUqUGJOLNiau-74">
          <mxGeometry relative="1" as="geometry" />
        </mxCell>
        <mxCell id="Z8X8oKxadUqUGJOLNiau-76" value="No" style="edgeLabel;html=1;align=center;verticalAlign=middle;resizable=0;points=[];" vertex="1" connectable="0" parent="Z8X8oKxadUqUGJOLNiau-75">
          <mxGeometry x="-0.1772" y="1" relative="1" as="geometry">
            <mxPoint as="offset" />
          </mxGeometry>
        </mxCell>
        <mxCell id="Z8X8oKxadUqUGJOLNiau-79" value="" style="edgeStyle=orthogonalEdgeStyle;rounded=0;orthogonalLoop=1;jettySize=auto;html=1;" edge="1" parent="WIyWlLk6GJQsqaUBKTNV-1" source="Z8X8oKxadUqUGJOLNiau-70" target="Z8X8oKxadUqUGJOLNiau-78">
          <mxGeometry relative="1" as="geometry" />
        </mxCell>
        <mxCell id="Z8X8oKxadUqUGJOLNiau-80" value="Yes" style="edgeLabel;html=1;align=center;verticalAlign=middle;resizable=0;points=[];" vertex="1" connectable="0" parent="Z8X8oKxadUqUGJOLNiau-79">
          <mxGeometry x="-0.1831" y="-1" relative="1" as="geometry">
            <mxPoint as="offset" />
          </mxGeometry>
        </mxCell>
        <mxCell id="Z8X8oKxadUqUGJOLNiau-70" value="Success" style="rhombus;whiteSpace=wrap;html=1;rounded=1;glass=0;strokeWidth=1;shadow=0;" vertex="1" parent="WIyWlLk6GJQsqaUBKTNV-1">
          <mxGeometry x="179" y="710" width="80" height="80" as="geometry" />
        </mxCell>
        <mxCell id="Z8X8oKxadUqUGJOLNiau-77" style="edgeStyle=orthogonalEdgeStyle;rounded=0;orthogonalLoop=1;jettySize=auto;html=1;exitX=1;exitY=0.5;exitDx=0;exitDy=0;entryX=1;entryY=0.5;entryDx=0;entryDy=0;" edge="1" parent="WIyWlLk6GJQsqaUBKTNV-1" source="Z8X8oKxadUqUGJOLNiau-74" target="Z8X8oKxadUqUGJOLNiau-68">
          <mxGeometry relative="1" as="geometry">
            <Array as="points">
              <mxPoint x="430" y="750" />
              <mxPoint x="430" y="584" />
            </Array>
          </mxGeometry>
        </mxCell>
        <mxCell id="Z8X8oKxadUqUGJOLNiau-74" value="add CRM Error" style="whiteSpace=wrap;html=1;rounded=1;glass=0;strokeWidth=1;shadow=0;" vertex="1" parent="WIyWlLk6GJQsqaUBKTNV-1">
          <mxGeometry x="310" y="730" width="100" height="40" as="geometry" />
        </mxCell>
        <mxCell id="Z8X8oKxadUqUGJOLNiau-111" style="edgeStyle=orthogonalEdgeStyle;rounded=0;orthogonalLoop=1;jettySize=auto;html=1;exitX=0.5;exitY=1;exitDx=0;exitDy=0;" edge="1" parent="WIyWlLk6GJQsqaUBKTNV-1" source="Z8X8oKxadUqUGJOLNiau-78" target="Z8X8oKxadUqUGJOLNiau-101">
          <mxGeometry relative="1" as="geometry" />
        </mxCell>
        <mxCell id="Z8X8oKxadUqUGJOLNiau-78" value="add note to customer it was successful" style="whiteSpace=wrap;html=1;rounded=1;glass=0;strokeWidth=1;shadow=0;" vertex="1" parent="WIyWlLk6GJQsqaUBKTNV-1">
          <mxGeometry x="149.5" y="830" width="139" height="50" as="geometry" />
        </mxCell>
        <mxCell id="Z8X8oKxadUqUGJOLNiau-97" value="" style="edgeStyle=orthogonalEdgeStyle;rounded=0;orthogonalLoop=1;jettySize=auto;html=1;" edge="1" parent="WIyWlLk6GJQsqaUBKTNV-1" source="Z8X8oKxadUqUGJOLNiau-68" target="Z8X8oKxadUqUGJOLNiau-96">
          <mxGeometry relative="1" as="geometry">
            <mxPoint x="220" y="602" as="sourcePoint" />
            <mxPoint x="219" y="710" as="targetPoint" />
          </mxGeometry>
        </mxCell>
        <mxCell id="Z8X8oKxadUqUGJOLNiau-96" value="Save CRM Action" style="whiteSpace=wrap;html=1;rounded=1;glass=0;strokeWidth=1;shadow=0;" vertex="1" parent="WIyWlLk6GJQsqaUBKTNV-1">
          <mxGeometry x="144" y="640" width="150" height="35" as="geometry" />
        </mxCell>
        <mxCell id="Z8X8oKxadUqUGJOLNiau-100" value="" style="edgeStyle=orthogonalEdgeStyle;rounded=0;orthogonalLoop=1;jettySize=auto;html=1;" edge="1" parent="WIyWlLk6GJQsqaUBKTNV-1" source="Z8X8oKxadUqUGJOLNiau-110" target="Z8X8oKxadUqUGJOLNiau-105">
          <mxGeometry relative="1" as="geometry" />
        </mxCell>
        <mxCell id="Z8X8oKxadUqUGJOLNiau-101" value="&lt;div&gt;cancel fulfillments&lt;/div&gt;" style="whiteSpace=wrap;html=1;rounded=1;glass=0;strokeWidth=1;shadow=0;" vertex="1" parent="WIyWlLk6GJQsqaUBKTNV-1">
          <mxGeometry x="160" y="920" width="120" height="40" as="geometry" />
        </mxCell>
        <mxCell id="Z8X8oKxadUqUGJOLNiau-102" value="" style="edgeStyle=orthogonalEdgeStyle;rounded=0;orthogonalLoop=1;jettySize=auto;html=1;" edge="1" parent="WIyWlLk6GJQsqaUBKTNV-1" source="Z8X8oKxadUqUGJOLNiau-105" target="Z8X8oKxadUqUGJOLNiau-107">
          <mxGeometry relative="1" as="geometry" />
        </mxCell>
        <mxCell id="Z8X8oKxadUqUGJOLNiau-103" value="No" style="edgeLabel;html=1;align=center;verticalAlign=middle;resizable=0;points=[];" vertex="1" connectable="0" parent="Z8X8oKxadUqUGJOLNiau-102">
          <mxGeometry x="-0.051" y="2" relative="1" as="geometry">
            <mxPoint as="offset" />
          </mxGeometry>
        </mxCell>
        <mxCell id="Z8X8oKxadUqUGJOLNiau-104" value="" style="edgeStyle=orthogonalEdgeStyle;rounded=0;orthogonalLoop=1;jettySize=auto;html=1;" edge="1" parent="WIyWlLk6GJQsqaUBKTNV-1" source="Z8X8oKxadUqUGJOLNiau-105" target="Z8X8oKxadUqUGJOLNiau-108">
          <mxGeometry relative="1" as="geometry" />
        </mxCell>
        <mxCell id="Z8X8oKxadUqUGJOLNiau-105" value="Use Customer History To check if canceled ?" style="rhombus;whiteSpace=wrap;html=1;rounded=1;glass=0;strokeWidth=1;shadow=0;" vertex="1" parent="WIyWlLk6GJQsqaUBKTNV-1">
          <mxGeometry x="140" y="1068" width="160" height="90" as="geometry" />
        </mxCell>
        <mxCell id="Z8X8oKxadUqUGJOLNiau-106" style="edgeStyle=orthogonalEdgeStyle;rounded=0;orthogonalLoop=1;jettySize=auto;html=1;exitX=0.5;exitY=0;exitDx=0;exitDy=0;entryX=1;entryY=0.5;entryDx=0;entryDy=0;" edge="1" parent="WIyWlLk6GJQsqaUBKTNV-1" source="Z8X8oKxadUqUGJOLNiau-107" target="Z8X8oKxadUqUGJOLNiau-101">
          <mxGeometry relative="1" as="geometry" />
        </mxCell>
        <mxCell id="Z8X8oKxadUqUGJOLNiau-107" value="Log Error" style="whiteSpace=wrap;html=1;rounded=1;glass=0;strokeWidth=1;shadow=0;" vertex="1" parent="WIyWlLk6GJQsqaUBKTNV-1">
          <mxGeometry x="439" y="1083" width="120" height="60" as="geometry" />
        </mxCell>
        <mxCell id="Z8X8oKxadUqUGJOLNiau-108" value="add note to customer it was successful" style="whiteSpace=wrap;html=1;rounded=1;glass=0;strokeWidth=1;shadow=0;" vertex="1" parent="WIyWlLk6GJQsqaUBKTNV-1">
          <mxGeometry x="150.5" y="1200" width="139" height="50" as="geometry" />
        </mxCell>
        <mxCell id="Z8X8oKxadUqUGJOLNiau-109" value="" style="edgeStyle=orthogonalEdgeStyle;rounded=0;orthogonalLoop=1;jettySize=auto;html=1;" edge="1" parent="WIyWlLk6GJQsqaUBKTNV-1" source="Z8X8oKxadUqUGJOLNiau-101" target="Z8X8oKxadUqUGJOLNiau-110">
          <mxGeometry relative="1" as="geometry">
            <mxPoint x="219" y="960" as="sourcePoint" />
            <mxPoint x="219" y="1053" as="targetPoint" />
          </mxGeometry>
        </mxCell>
        <mxCell id="Z8X8oKxadUqUGJOLNiau-110" value="Save CRM Action" style="whiteSpace=wrap;html=1;rounded=1;glass=0;strokeWidth=1;shadow=0;" vertex="1" parent="WIyWlLk6GJQsqaUBKTNV-1">
          <mxGeometry x="145" y="995" width="150" height="35" as="geometry" />
        </mxCell>
      </root>
    </mxGraphModel>
  </diagram>
</mxfile>
